ffmpeg version v1.35-2-g8d99df0 Copyright (c) 2000-2022 the FFmpeg developers
  built with gcc 7 (Ubuntu 7.5.0-3ubuntu1~18.04)
  configuration: --enable-libsvtav1 --enable-libvpx --enable-libaom --enable-libzimg --enable-lv2 --enable-libopencore_amrnb --enable-libopencore_amrwb --enable-libmp3lame --enable-libopus --enable-libvorbis --enable-libtheora --enable-libwebp --enable-amf --disable-debug --disable-doc --disable-shared --enable-pthreads --enable-static --enable-small --enable-version3 --extra-cflags='-I/home/rich/ffmpeg-build-script/workspace/include -I/home/rich/ffmpeg-build-script/workspace/include/lilv-0' --extra-ldexeflags= --extra-ldflags=-L/home/rich/ffmpeg-build-script/workspace/lib --extra-libs='-ldl -lpthread -lm -lz' --pkgconfigdir=/home/rich/ffmpeg-build-script/workspace/lib/pkgconfig --pkg-config-flags=--static --prefix=/home/rich/ffmpeg-build-script/workspace --extra-version=
  libavutil      57. 17.100 / 57. 17.100
  libavcodec     59. 18.100 / 59. 18.100
  libavformat    59. 16.100 / 59. 16.100
  libavdevice    59.  4.100 / 59.  4.100
  libavfilter     8. 24.100 /  8. 24.100
  libswscale      6.  4.100 /  6.  4.100
  libswresample   4.  3.100 /  4.  3.100
Input #0, rtsp, from 'rtsp://68.227.145.128:8554/profile2/media.smp':
  Metadata:
    title           : Media Presentation
    comment         : samsung
  Duration: N/A, start: 1655141338.215667, bitrate: N/A
  Stream #0:0: Video: h264, yuvj420p(pc, bt709, progressive), 640x360 [SAR 1:1 DAR 16:9], 30 fps, 30 tbr, 90k tbn
  Stream #0:1: Audio: aac, 16000 Hz, mono, fltp
  Stream #0:2: Data: none
Output #0, rtsp, to 'rtsp://localhost:8554/room352':
  Metadata:
    title           : Media Presentation
    comment         : samsung
    encoder         : Lavf59.16.100
  Stream #0:0: Video: h264, yuvj420p(pc, bt709, progressive), 640x360 [SAR 1:1 DAR 16:9], q=2-31, 30 fps, 30 tbr, 90k tbn
  Stream #0:1: Audio: aac, 16000 Hz, mono, fltp
Stream mapping:
  Stream #0:0 -> #0:0 (copy)
  Stream #0:1 -> #0:1 (copy)
Press [q] to stop, [?] for help
[rtsp @ 0x55ac1cc40980] Timestamps are unset in a packet for stream 0. This is deprecated and will stop working in the future. Fix your code to set the timestamps properly
frame=    1 fps=0.0 q=-1.0 size=N/A time=00:00:00.00 bitrate=N/A speed=N/A    [rtsp @ 0x55ac1cc40980] Non-monotonous DTS in output stream 0:0; previous: 0, current: 0; changing to 1. This may result in incorrect timestamps in the output file.
frame=   39 fps=0.0 q=-1.0 size=N/A time=00:00:01.02 bitrate=N/A speed=   2x    frame=   55 fps= 54 q=-1.0 size=N/A time=00:00:01.42 bitrate=N/A speed=1.41x    frame=   70 fps= 45 q=-1.0 size=N/A time=00:00:02.05 bitrate=N/A speed=1.33x    frame=   85 fps= 41 q=-1.0 size=N/A time=00:00:02.55 bitrate=N/A speed=1.25x    frame=  101 fps= 39 q=-1.0 size=N/A time=00:00:03.07 bitrate=N/A speed=1.18x    frame=  116 fps= 37 q=-1.0 size=N/A time=00:00:03.59 bitrate=N/A speed=1.16x    frame=  132 fps= 37 q=-1.0 size=N/A time=00:00:04.09 bitrate=N/A speed=1.13x    frame=  147 fps= 35 q=-1.0 size=N/A time=00:00:04.61 bitrate=N/A speed=1.11x    frame=  162 fps= 35 q=-1.0 size=N/A time=00:00:05.12 bitrate=N/A speed= 1.1x    frame=  178 fps= 34 q=-1.0 size=N/A time=00:00:05.65 bitrate=N/A speed=1.09x    frame=  193 fps= 34 q=-1.0 size=N/A time=00:00:06.15 bitrate=N/A speed=1.08x    frame=  210 fps= 34 q=-1.0 size=N/A time=00:00:06.69 bitrate=N/A speed=1.08x    frame=  226 fps= 34 q=-1.0 size=N/A time=00:00:07.18 bitrate=N/A speed=1.07x    frame=  241 fps= 33 q=-1.0 size=N/A time=00:00:07.69 bitrate=N/A speed=1.06x    frame=  257 fps= 33 q=-1.0 size=N/A time=00:00:08.21 bitrate=N/A speed=1.06x    frame=  270 fps= 33 q=-1.0 size=N/A time=00:00:08.72 bitrate=N/A speed=1.06x    frame=  287 fps= 33 q=-1.0 size=N/A time=00:00:09.22 bitrate=N/A speed=1.05x    frame=  301 fps= 33 q=-1.0 size=N/A time=00:00:09.73 bitrate=N/A speed=1.05x    frame=  316 fps= 32 q=-1.0 size=N/A time=00:00:10.25 bitrate=N/A speed=1.05x    frame=  332 fps= 32 q=-1.0 size=N/A time=00:00:10.76 bitrate=N/A speed=1.05x    frame=  348 fps= 32 q=-1.0 size=N/A time=00:00:11.29 bitrate=N/A speed=1.04x    frame=  363 fps= 32 q=-1.0 size=N/A time=00:00:11.79 bitrate=N/A speed=1.04x    frame=  378 fps= 32 q=-1.0 size=N/A time=00:00:12.32 bitrate=N/A speed=1.04x    frame=  393 fps= 32 q=-1.0 size=N/A time=00:00:12.82 bitrate=N/A speed=1.04x    frame=  410 fps= 32 q=-1.0 size=N/A time=00:00:13.32 bitrate=N/A speed=1.03x    frame=  424 fps= 32 q=-1.0 size=N/A time=00:00:13.86 bitrate=N/A speed=1.04x    frame=  441 fps= 32 q=-1.0 size=N/A time=00:00:14.35 bitrate=N/A speed=1.03x    frame=  456 fps= 32 q=-1.0 size=N/A time=00:00:14.85 bitrate=N/A speed=1.03x    frame=  471 fps= 32 q=-1.0 size=N/A time=00:00:15.39 bitrate=N/A speed=1.03x    frame=  487 fps= 32 q=-1.0 size=N/A time=00:00:15.88 bitrate=N/A speed=1.03x    frame=  502 fps= 31 q=-1.0 size=N/A time=00:00:16.39 bitrate=N/A speed=1.03x    frame=  518 fps= 31 q=-1.0 size=N/A time=00:00:16.91 bitrate=N/A speed=1.03x    frame=  534 fps= 31 q=-1.0 size=N/A time=00:00:17.42 bitrate=N/A speed=1.03x    frame=  550 fps= 31 q=-1.0 size=N/A time=00:00:17.93 bitrate=N/A speed=1.02x    frame=  565 fps= 31 q=-1.0 size=N/A time=00:00:18.44 bitrate=N/A speed=1.02x    frame=  581 fps= 31 q=-1.0 size=N/A time=00:00:18.95 bitrate=N/A speed=1.02x    frame=  596 fps= 31 q=-1.0 size=N/A time=00:00:19.47 bitrate=N/A speed=1.02x    frame=  611 fps= 31 q=-1.0 size=N/A time=00:00:20.09 bitrate=N/A speed=1.03x    frame=  627 fps= 31 q=-1.0 size=N/A time=00:00:20.49 bitrate=N/A speed=1.02x    frame=  642 fps= 31 q=-1.0 size=N/A time=00:00:21.02 bitrate=N/A speed=1.02x    frame=  658 fps= 31 q=-1.0 size=N/A time=00:00:21.53 bitrate=N/A speed=1.02x    frame=  673 fps= 31 q=-1.0 size=N/A time=00:00:22.03 bitrate=N/A speed=1.02x    frame=  688 fps= 31 q=-1.0 size=N/A time=00:00:22.55 bitrate=N/A speed=1.02x    frame=  704 fps= 31 q=-1.0 size=N/A time=00:00:23.06 bitrate=N/A speed=1.02x    frame=  719 fps= 31 q=-1.0 size=N/A time=00:00:23.69 bitrate=N/A speed=1.02x    frame=  734 fps= 31 q=-1.0 size=N/A time=00:00:24.18 bitrate=N/A speed=1.02x    frame=  750 fps= 31 q=-1.0 size=N/A time=00:00:24.70 bitrate=N/A speed=1.02x    frame=  765 fps= 31 q=-1.0 size=N/A time=00:00:25.21 bitrate=N/A speed=1.02x    frame=  781 fps= 31 q=-1.0 size=N/A time=00:00:25.72 bitrate=N/A speed=1.02x    frame=  796 fps= 31 q=-1.0 size=N/A time=00:00:26.25 bitrate=N/A speed=1.02x    frame=  812 fps= 31 q=-1.0 size=N/A time=00:00:26.75 bitrate=N/A speed=1.02x    frame=  827 fps= 31 q=-1.0 size=N/A time=00:00:27.28 bitrate=N/A speed=1.02x    frame=  842 fps= 31 q=-1.0 size=N/A time=00:00:27.78 bitrate=N/A speed=1.02x    frame=  858 fps= 31 q=-1.0 size=N/A time=00:00:28.29 bitrate=N/A speed=1.02x    frame=  873 fps= 31 q=-1.0 size=N/A time=00:00:28.81 bitrate=N/A speed=1.02x    frame=  891 fps= 31 q=-1.0 size=N/A time=00:00:29.31 bitrate=N/A speed=1.02x    frame=  906 fps= 31 q=-1.0 size=N/A time=00:00:29.84 bitrate=N/A speed=1.02x    frame=  921 fps= 31 q=-1.0 size=N/A time=00:00:30.35 bitrate=N/A speed=1.01x    frame=  937 fps= 31 q=-1.0 size=N/A time=00:00:30.85 bitrate=N/A speed=1.01x    frame=  952 fps= 31 q=-1.0 size=N/A time=00:00:31.39 bitrate=N/A speed=1.02x    frame=  967 fps= 31 q=-1.0 size=N/A time=00:00:31.88 bitrate=N/A speed=1.01x    frame=  982 fps= 31 q=-1.0 size=N/A time=00:00:32.38 bitrate=N/A speed=1.01x    frame=  997 fps= 31 q=-1.0 size=N/A time=00:00:32.92 bitrate=N/A speed=1.01x    frame= 1013 fps= 31 q=-1.0 size=N/A time=00:00:33.42 bitrate=N/A speed=1.01x    frame= 1028 fps= 31 q=-1.0 size=N/A time=00:00:33.92 bitrate=N/A speed=1.01x    frame= 1042 fps= 31 q=-1.0 size=N/A time=00:00:34.43 bitrate=N/A speed=1.01x    frame= 1057 fps= 31 q=-1.0 size=N/A time=00:00:34.95 bitrate=N/A speed=1.01x    frame= 1073 fps= 31 q=-1.0 size=N/A time=00:00:35.45 bitrate=N/A speed=1.01x    frame= 1088 fps= 31 q=-1.0 size=N/A time=00:00:35.97 bitrate=N/A speed=1.01x    frame= 1103 fps= 31 q=-1.0 size=N/A time=00:00:36.49 bitrate=N/A speed=1.01x    frame= 1119 fps= 31 q=-1.0 size=N/A time=00:00:36.99 bitrate=N/A speed=1.01x    frame= 1134 fps= 31 q=-1.0 size=N/A time=00:00:37.52 bitrate=N/A speed=1.01x    frame= 1149 fps= 31 q=-1.0 size=N/A time=00:00:38.02 bitrate=N/A speed=1.01x    frame= 1165 fps= 31 q=-1.0 size=N/A time=00:00:38.54 bitrate=N/A speed=1.01x    frame= 1180 fps= 31 q=-1.0 size=N/A time=00:00:39.05 bitrate=N/A speed=1.01x    frame= 1196 fps= 31 q=-1.0 size=N/A time=00:00:39.55 bitrate=N/A speed=1.01x    frame= 1211 fps= 31 q=-1.0 size=N/A time=00:00:40.08 bitrate=N/A speed=1.01x    frame= 1226 fps= 31 q=-1.0 size=N/A time=00:00:40.59 bitrate=N/A speed=1.01x    frame= 1242 fps= 31 q=-1.0 size=N/A time=00:00:41.11 bitrate=N/A speed=1.01x    frame= 1257 fps= 31 q=-1.0 size=N/A time=00:00:41.62 bitrate=N/A speed=1.01x    frame= 1273 fps= 31 q=-1.0 size=N/A time=00:00:42.12 bitrate=N/A speed=1.01x    frame= 1288 fps= 31 q=-1.0 size=N/A time=00:00:42.65 bitrate=N/A speed=1.01x    frame= 1303 fps= 31 q=-1.0 size=N/A time=00:00:43.16 bitrate=N/A speed=1.01x    frame= 1321 fps= 31 q=-1.0 size=N/A time=00:00:43.66 bitrate=N/A speed=1.01x    frame= 1336 fps= 31 q=-1.0 size=N/A time=00:00:44.19 bitrate=N/A speed=1.01x    frame= 1352 fps= 31 q=-1.0 size=N/A time=00:00:44.68 bitrate=N/A speed=1.01x    frame= 1368 fps= 31 q=-1.0 size=N/A time=00:00:45.19 bitrate=N/A speed=1.01x    frame= 1383 fps= 31 q=-1.0 size=N/A time=00:00:45.71 bitrate=N/A speed=1.01x    frame= 1398 fps= 31 q=-1.0 size=N/A time=00:00:46.21 bitrate=N/A speed=1.01x    frame= 1414 fps= 31 q=-1.0 size=N/A time=00:00:46.72 bitrate=N/A speed=1.01x    frame= 1429 fps= 31 q=-1.0 size=N/A time=00:00:47.26 bitrate=N/A speed=1.01x    frame= 1444 fps= 31 q=-1.0 size=N/A time=00:00:47.76 bitrate=N/A speed=1.01x    frame= 1459 fps= 31 q=-1.0 size=N/A time=00:00:48.26 bitrate=N/A speed=1.01x    frame= 1474 fps= 30 q=-1.0 size=N/A time=00:00:48.79 bitrate=N/A speed=1.01x    frame= 1490 fps= 31 q=-1.0 size=N/A time=00:00:49.28 bitrate=N/A speed=1.01x    frame= 1505 fps= 30 q=-1.0 size=N/A time=00:00:49.80 bitrate=N/A speed=1.01x    frame= 1519 fps= 30 q=-1.0 size=N/A time=00:00:50.32 bitrate=N/A speed=1.01x    frame= 1535 fps= 30 q=-1.0 size=N/A time=00:00:50.82 bitrate=N/A speed=1.01x    frame= 1552 fps= 30 q=-1.0 size=N/A time=00:00:51.35 bitrate=N/A speed=1.01x    frame= 1568 fps= 30 q=-1.0 size=N/A time=00:00:51.86 bitrate=N/A speed=1.01x    frame= 1583 fps= 30 q=-1.0 size=N/A time=00:00:52.36 bitrate=N/A speed=1.01x    frame= 1598 fps= 30 q=-1.0 size=N/A time=00:00:52.98 bitrate=N/A speed=1.01x    frame= 1614 fps= 30 q=-1.0 size=N/A time=00:00:53.39 bitrate=N/A speed=1.01x    frame= 1629 fps= 30 q=-1.0 size=N/A time=00:00:53.92 bitrate=N/A speed=1.01x    frame= 1644 fps= 30 q=-1.0 size=N/A time=00:00:54.51 bitrate=N/A speed=1.01x    frame= 1660 fps= 30 q=-1.0 size=N/A time=00:00:54.96 bitrate=N/A speed=1.01x    frame= 1675 fps= 30 q=-1.0 size=N/A time=00:00:55.55 bitrate=N/A speed=1.01x    frame= 1691 fps= 30 q=-1.0 size=N/A time=00:00:56.08 bitrate=N/A speed=1.01x    frame= 1706 fps= 30 q=-1.0 size=N/A time=00:00:56.57 bitrate=N/A speed=1.01x    frame= 1721 fps= 30 q=-1.0 size=N/A time=00:00:57.08 bitrate=N/A speed=1.01x    frame= 1737 fps= 30 q=-1.0 size=N/A time=00:00:57.61 bitrate=N/A speed=1.01x    frame= 1752 fps= 30 q=-1.0 size=N/A time=00:00:58.10 bitrate=N/A speed=1.01x    frame= 1768 fps= 30 q=-1.0 size=N/A time=00:00:58.62 bitrate=N/A speed=1.01x    frame= 1783 fps= 30 q=-1.0 size=N/A time=00:00:59.15 bitrate=N/A speed=1.01x    frame= 1798 fps= 30 q=-1.0 size=N/A time=00:00:59.65 bitrate=N/A speed=1.01x    frame= 1813 fps= 30 q=-1.0 size=N/A time=00:01:00.15 bitrate=N/A speed=1.01x    frame= 1829 fps= 30 q=-1.0 size=N/A time=00:01:00.66 bitrate=N/A speed=1.01x    frame= 1844 fps= 30 q=-1.0 size=N/A time=00:01:01.20 bitrate=N/A speed=1.01x    frame= 1860 fps= 30 q=-1.0 size=N/A time=00:01:01.69 bitrate=N/A speed=1.01x    frame= 1875 fps= 30 q=-1.0 size=N/A time=00:01:02.22 bitrate=N/A speed=1.01x    frame= 1890 fps= 30 q=-1.0 size=N/A time=00:01:02.72 bitrate=N/A speed=1.01x    frame= 1906 fps= 30 q=-1.0 size=N/A time=00:01:03.25 bitrate=N/A speed=1.01x    frame= 1921 fps= 30 q=-1.0 size=N/A time=00:01:03.75 bitrate=N/A speed=1.01x    frame= 1937 fps= 30 q=-1.0 size=N/A time=00:01:04.26 bitrate=N/A speed=1.01x    frame= 1952 fps= 30 q=-1.0 size=N/A time=00:01:04.78 bitrate=N/A speed=1.01x    frame= 1968 fps= 30 q=-1.0 size=N/A time=00:01:05.29 bitrate=N/A speed=1.01x    frame= 1983 fps= 30 q=-1.0 size=N/A time=00:01:05.79 bitrate=N/A speed=1.01x    frame= 1998 fps= 30 q=-1.0 size=N/A time=00:01:06.30 bitrate=N/A speed=1.01x    frame= 2013 fps= 30 q=-1.0 size=N/A time=00:01:06.82 bitrate=N/A speed=1.01x    frame= 2029 fps= 30 q=-1.0 size=N/A time=00:01:07.32 bitrate=N/A speed=1.01x    frame= 2044 fps= 30 q=-1.0 size=N/A time=00:01:07.83 bitrate=N/A speed=1.01x    frame= 2059 fps= 30 q=-1.0 size=N/A time=00:01:08.36 bitrate=N/A speed=1.01x    frame= 2075 fps= 30 q=-1.0 size=N/A time=00:01:08.86 bitrate=N/A speed=1.01x    frame= 2090 fps= 30 q=-1.0 size=N/A time=00:01:09.38 bitrate=N/A speed=1.01x    frame= 2106 fps= 30 q=-1.0 size=N/A time=00:01:09.89 bitrate=N/A speed=1.01x    frame= 2121 fps= 30 q=-1.0 size=N/A time=00:01:10.39 bitrate=N/A speed=1.01x    frame= 2136 fps= 30 q=-1.0 size=N/A time=00:01:10.91 bitrate=N/A speed=1.01x    frame= 2152 fps= 30 q=-1.0 size=N/A time=00:01:11.42 bitrate=N/A speed=1.01x    frame= 2167 fps= 30 q=-1.0 size=N/A time=00:01:11.95 bitrate=N/A speed=1.01x    frame= 2182 fps= 30 q=-1.0 size=N/A time=00:01:12.45 bitrate=N/A speed=1.01x    frame= 2198 fps= 30 q=-1.0 size=N/A time=00:01:12.95 bitrate=N/A speed=1.01x    frame= 2213 fps= 30 q=-1.0 size=N/A time=00:01:13.48 bitrate=N/A speed=1.01x    frame= 2228 fps= 30 q=-1.0 size=N/A time=00:01:13.99 bitrate=N/A speed=1.01x    frame= 2244 fps= 30 q=-1.0 size=N/A time=00:01:14.49 bitrate=N/A speed=1.01x    frame= 2259 fps= 30 q=-1.0 size=N/A time=00:01:15.02 bitrate=N/A speed=1.01x    frame= 2274 fps= 30 q=-1.0 size=N/A time=00:01:15.52 bitrate=N/A speed=1.01x    frame= 2290 fps= 30 q=-1.0 size=N/A time=00:01:16.05 bitrate=N/A speed=1.01x    frame= 2305 fps= 30 q=-1.0 size=N/A time=00:01:16.55 bitrate=N/A speed=1.01x    frame= 2320 fps= 30 q=-1.0 size=N/A time=00:01:17.05 bitrate=N/A speed=1.01x    frame= 2336 fps= 30 q=-1.0 size=N/A time=00:01:17.58 bitrate=N/A speed=1.01x    frame= 2342 fps= 30 q=-1.0 Lsize=N/A time=00:01:17.71 bitrate=N/A speed=1.01x    
video:5341kB audio:442kB subtitle:0kB other streams:0kB global headers:0kB muxing overhead: unknown
Exiting normally, received signal 15.
